<svg id="Capa_1" enable-background="new 0 0 512 512" height="60" viewBox="0 0 512 512" width="60" xmlns="http://www.w3.org/2000/svg"><path d="m437.02 74.98c-48.353-48.351-112.64-74.98-181.02-74.98s-132.667 26.629-181.02 74.98c-48.351 48.353-74.98 112.64-74.98 181.02s26.629 132.667 74.98 181.02c48.353 48.351 112.64 74.98 181.02 74.98s132.667-26.629 181.02-74.98c48.351-48.353 74.98-112.64 74.98-181.02s-26.629-132.667-74.98-181.02z" fill="#d9f2ff"/><path d="m437.02 74.98c-48.353-48.351-112.64-74.98-181.02-74.98v512c68.38 0 132.667-26.629 181.02-74.98 48.351-48.353 74.98-112.64 74.98-181.02s-26.629-132.667-74.98-181.02z" fill="#cdf"/><path d="m306.731 445.329 15.551 58.036c43.003-11.447 82.431-34.039 114.738-66.346s54.899-71.735 66.346-114.738l-58.036-15.551c-18.071 67.374-71.226 120.529-138.599 138.599z" fill="#39abff"/><path d="m66.671 306.731-58.037 15.55c11.447 43.003 34.039 82.431 66.346 114.738s71.735 54.899 114.738 66.346l15.551-58.036c-67.373-18.07-120.528-71.225-138.598-138.598z" fill="#77e2f9"/><path d="m445.329 205.269 58.036-15.551c-11.447-43.003-34.039-82.431-66.346-114.738s-71.735-54.899-114.738-66.346l-15.551 58.036c67.374 18.071 120.529 71.226 138.599 138.599z" fill="#39abff"/><path d="m205.269 66.671-15.55-58.036c-43.004 11.447-82.431 34.038-114.739 66.345-32.307 32.307-54.899 71.735-66.346 114.738l58.036 15.551c18.071-67.373 71.226-120.528 138.599-138.598z" fill="#77e2f9"/><path d="m256 60c-108.075 0-196 87.925-196 196s87.925 196 196 196 196-87.925 196-196-87.925-196-196-196zm71.462 79.718c4.99-6.612 14.396-7.927 21.009-2.938 5.018 3.787 9.83 7.974 14.302 12.447 4.473 4.472 8.66 9.284 12.447 14.302 4.99 6.613 3.675 16.019-2.938 21.009-2.705 2.042-5.878 3.028-9.024 3.028-4.545 0-9.036-2.058-11.984-5.965-2.952-3.912-6.22-7.667-9.713-11.16s-7.248-6.761-11.16-9.713c-6.614-4.992-7.929-14.397-2.939-21.01zm-90.376-33.406c12.453-1.741 25.375-1.741 37.828 0 8.205 1.147 13.925 8.728 12.778 16.933-1.048 7.5-7.474 12.925-14.836 12.925-.692 0-1.392-.048-2.096-.146-9.71-1.357-19.81-1.357-29.52 0-8.205 1.151-15.786-4.573-16.933-12.778-1.146-8.206 4.574-15.787 12.779-16.934zm-113.841 181.38c-.704.099-1.405.146-2.096.146-7.363 0-13.788-5.424-14.836-12.925-.872-6.225-1.313-12.589-1.313-18.913s.441-12.688 1.312-18.914c1.147-8.205 8.728-13.925 16.933-12.778s13.925 8.728 12.778 16.933c-.679 4.854-1.023 9.82-1.023 14.759s.344 9.905 1.023 14.76c1.147 8.204-4.574 15.785-12.778 16.932zm61.293 84.59c-2.949 3.907-7.439 5.965-11.984 5.965-3.147 0-6.319-.986-9.024-3.028-5.018-3.787-9.83-7.974-14.302-12.447-4.473-4.472-8.66-9.284-12.447-14.302-4.99-6.613-3.675-16.019 2.938-21.009 6.613-4.991 16.019-3.675 21.009 2.938 2.952 3.912 6.22 7.667 9.713 11.16s7.248 6.761 11.16 9.713c6.612 4.992 7.927 14.397 2.937 21.01zm-2.938-211.555c-3.912 2.952-7.667 6.22-11.16 9.713s-6.761 7.248-9.713 11.16c-2.949 3.907-7.439 5.965-11.984 5.965-3.147 0-6.319-.986-9.024-3.028-6.613-4.99-7.928-14.396-2.938-21.009 3.787-5.018 7.974-9.83 12.447-14.302 4.472-4.473 9.284-8.66 14.302-12.447 6.613-4.991 16.02-3.675 21.009 2.938 4.989 6.614 3.674 16.019-2.939 21.01zm93.314 244.961c-6.226.871-12.59 1.312-18.914 1.312s-12.688-.441-18.914-1.312c-8.205-1.147-13.925-8.728-12.778-16.933 1.146-8.205 8.728-13.926 16.933-12.778 9.71 1.357 19.81 1.357 29.52 0 8.204-1.15 15.785 4.573 16.933 12.778 1.145 8.205-4.575 15.786-12.78 16.933zm8.383-91.622c-3.677 2.597-7.85 4.566-12.297 5.899v5.19c0 8.284-6.716 15-15 15s-15-6.716-15-15v-5.517c-2.087-.654-4.14-1.427-6.131-2.354-9.702-4.518-16.776-12.122-20.458-21.989-2.896-7.761 1.047-16.401 8.809-19.298 7.761-2.896 16.401 1.046 19.298 8.809.933 2.5 2.433 4.08 5.016 5.283 5.885 2.74 14.165 2.504 18.456-.525 3.019-2.133 4.255-6.537 2.755-9.817-1.954-4.271-11.867-7.813-17.79-9.928-.007-.003-.014-.005-.021-.008-11.055-3.949-27.744-9.92-34.959-25.695-7.45-16.291-1.978-36.41 12.729-46.798 3.675-2.595 7.853-4.543 12.297-5.875v-4.596c0-8.284 6.716-15 15-15s15 6.716 15 15v4.883c2.088.654 4.138 1.443 6.13 2.371 9.7 4.516 16.775 12.12 20.458 21.987 2.897 7.761-1.046 16.402-8.807 19.299-7.76 2.9-16.401-1.045-19.299-8.807-.934-2.501-2.434-4.081-5.016-5.283-5.887-2.741-14.166-2.505-18.457.524-3.019 2.132-4.255 6.537-2.755 9.817 1.951 4.266 11.844 7.804 17.77 9.921.006.002.014.004.02.007 11.055 3.949 27.76 9.917 34.98 25.704 7.451 16.29 1.979 36.408-12.728 46.796zm91.923 34.405c-3.787 5.018-7.974 9.83-12.447 14.302-4.472 4.473-9.284 8.66-14.302 12.447-2.705 2.042-5.878 3.028-9.024 3.028-4.545 0-9.036-2.058-11.984-5.965-4.99-6.613-3.675-16.019 2.938-21.009 3.912-2.952 7.667-6.22 11.16-9.713s6.761-7.248 9.713-11.16c4.99-6.612 14.396-7.927 21.009-2.938 6.612 4.99 7.927 14.395 2.937 21.008zm15.632-60.632c-.692 0-1.392-.048-2.096-.146-8.205-1.147-13.925-8.728-12.778-16.933.679-4.855 1.023-9.821 1.023-14.76s-.344-9.905-1.023-14.76c-1.147-8.205 4.574-15.786 12.778-16.933 8.201-1.149 15.785 4.574 16.933 12.778.87 6.228 1.311 12.591 1.311 18.915s-.441 12.688-1.312 18.914c-1.049 7.5-7.474 12.925-14.836 12.925z" fill="#00cff6"/><g fill="#009ae4"><path d="m256 60v45.006c6.344 0 12.688.435 18.914 1.306 8.205 1.147 13.925 8.728 12.778 16.933-1.048 7.5-7.474 12.925-14.836 12.925-.692 0-1.392-.048-2.096-.146-4.855-.679-9.807-1.018-14.76-1.018v36.84c8.284 0 15 6.716 15 15v4.883c2.088.654 4.138 1.443 6.13 2.371 9.7 4.516 16.775 12.12 20.458 21.987 2.897 7.761-1.046 16.402-8.807 19.299-7.76 2.9-16.401-1.045-19.299-8.807-.934-2.501-2.434-4.081-5.016-5.283-2.547-1.186-5.542-1.812-8.468-1.899v20.308c1.8.7 3.538 1.321 5.026 1.853.006.002.014.004.02.007 11.055 3.949 27.76 9.917 34.98 25.704 7.45 16.291 1.978 36.409-12.729 46.797-3.677 2.597-7.85 4.566-12.297 5.899v5.19c0 8.284-6.716 15-15 15v36.84c4.952 0 9.905-.339 14.76-1.018 8.204-1.15 15.785 4.573 16.933 12.778 1.147 8.205-4.574 15.786-12.778 16.933-6.225.871-12.589 1.312-18.913 1.312v45c108.075 0 196-87.925 196-196s-87.925-196-196-196zm71.462 79.718c4.99-6.612 14.396-7.927 21.009-2.938 5.018 3.787 9.83 7.974 14.302 12.447 4.473 4.472 8.66 9.284 12.447 14.302 4.99 6.613 3.675 16.019-2.938 21.009-2.705 2.042-5.878 3.028-9.024 3.028-4.545 0-9.036-2.058-11.984-5.965-2.952-3.912-6.22-7.667-9.713-11.16s-7.248-6.761-11.16-9.713c-6.614-4.992-7.929-14.397-2.939-21.01zm47.758 208.753c-3.787 5.018-7.974 9.83-12.447 14.302-4.472 4.473-9.284 8.66-14.302 12.447-2.705 2.042-5.878 3.028-9.024 3.028-4.545 0-9.036-2.058-11.984-5.965-4.99-6.613-3.675-16.019 2.938-21.009 3.912-2.952 7.667-6.22 11.16-9.713s6.761-7.248 9.713-11.16c4.99-6.612 14.396-7.927 21.009-2.938 6.612 4.99 7.927 14.395 2.937 21.008zm15.632-60.632c-.692 0-1.392-.048-2.096-.146-8.205-1.147-13.925-8.728-12.778-16.933.679-4.855 1.023-9.821 1.023-14.76s-.344-9.905-1.023-14.76c-1.147-8.205 4.574-15.786 12.778-16.933 8.201-1.149 15.785 4.574 16.933 12.778.87 6.228 1.311 12.591 1.311 18.915s-.441 12.688-1.312 18.914c-1.049 7.5-7.474 12.925-14.836 12.925z"/><path d="m265.989 289.563c3.019-2.133 4.255-6.537 2.755-9.817-1.461-3.195-7.376-5.981-12.744-8.068v20.308c3.836.112 7.555-.705 9.989-2.423z"/></g></svg>